<svg id="Layer_1" data-name="Layer 1" xmlns="http://www.w3.org/2000/svg" xmlns:xlink="http://www.w3.org/1999/xlink" viewBox="0 0 158.02 70"><defs><style>.cls-1{fill:url(#linear-gradient);}.cls-2{fill:url(#linear-gradient-2);}.cls-3{fill:url(#linear-gradient-3);}.cls-4{fill:url(#linear-gradient-4);}</style><linearGradient id="linear-gradient" x1="37.06" y1="-26.37" x2="102.3" y2="115.3" gradientUnits="userSpaceOnUse"><stop offset="0.05" stop-color="#fff"/><stop offset="0.78" stop-color="#ffef00"/></linearGradient><linearGradient id="linear-gradient-2" x1="54.48" y1="-47.41" x2="124.94" y2="102.12" gradientUnits="userSpaceOnUse"><stop offset="0.17" stop-color="#fff"/><stop offset="0.82" stop-color="#ffef00"/></linearGradient><linearGradient id="linear-gradient-3" x1="-11.1" y1="-28.03" x2="47.34" y2="108.29" gradientUnits="userSpaceOnUse"><stop offset="0.14" stop-color="#fff"/><stop offset="0.85" stop-color="#ffef00"/></linearGradient><linearGradient id="linear-gradient-4" x1="111.39" y1="-28.68" x2="188.05" y2="125.49" gradientUnits="userSpaceOnUse"><stop offset="0.01" stop-color="#fff"/><stop offset="0.6" stop-color="#ffef00"/></linearGradient></defs><polygon class="cls-1" points="91.69 70 71.49 70 58.96 43.15 47.32 18.18 58.68 0 59.05 0 70.14 23.78 84.69 54.97 91.69 70"/><polygon class="cls-2" points="66.89 0 87.09 0 99.62 26.85 111.26 51.82 99.9 70 99.53 70 88.44 46.22 73.9 15.03 66.89 0"/><polygon class="cls-3" points="53.58 50.71 42.45 70 42.37 70 30.6 44.77 19.89 70 0 70 20.19 22.43 29.71 0 29.94 0 40.23 22.08 41.79 25.41 53.58 50.71"/><polygon class="cls-4" points="104.44 19.29 115.57 0 115.65 0 127.42 25.23 138.13 0 158.02 0 137.83 47.57 128.31 70 128.08 70 117.79 47.92 116.23 44.59 104.44 19.29"/></svg>